<svg width="115" height="69" viewBox="0 0 115 69" fill="none" xmlns="http://www.w3.org/2000/svg">
<circle cx="80.3909" cy="34.6283" r="34" fill="#32C3FF"/>
<path d="M3.7688 28.5837C5.05786 28.5837 6.05396 27.573 6.05396 26.3572C6.05396 25.1414 5.05786 24.1306 3.7688 24.1306C2.47974 24.1306 1.48364 25.1414 1.48364 26.3572C1.48364 27.573 2.47974 28.5837 3.7688 28.5837ZM1.63013 46.3083H5.90747V30.6052H1.63013V46.3083ZM8.54478 46.3083H12.4852V32.0115H12.6024L18.3153 46.3083H21.0985L26.7967 32.0115H26.9286V46.3083H30.869V25.1707H25.7567L19.7508 40.3611H19.6629L13.6571 25.1707H8.54478V46.3083ZM40.5668 46.6306C45.0493 46.6306 47.2172 43.9792 47.7006 41.6648L47.7446 41.5037H43.8188L43.7895 41.5916C43.4819 42.4705 42.4125 43.4373 40.6547 43.4373C38.4721 43.4373 37.1098 41.9724 37.0659 39.4675H47.8764V38.1492C47.8764 33.4031 44.9907 30.283 40.3911 30.283C35.7915 30.283 32.8471 33.4763 32.8471 38.4714V38.4861C32.8471 43.5105 35.7622 46.6306 40.5668 46.6306ZM40.4643 33.4763C42.2368 33.4763 43.5112 34.6042 43.7749 36.7722H37.1098C37.3881 34.6482 38.7065 33.4763 40.4643 33.4763ZM49.4883 46.3083H53.7657V37.2849C53.7657 35.2341 54.9815 33.8279 56.9004 33.8279C58.8194 33.8279 59.7862 34.9998 59.7862 37.0505V46.3083H64.0635V36.1716C64.0635 32.4949 62.1006 30.283 58.6436 30.283C56.2706 30.283 54.6592 31.3816 53.8536 33.1833H53.7657V30.6052H49.4883V46.3083ZM72.4137 46.6306C73.3073 46.6306 73.9958 46.5427 74.4791 46.4695V43.3347C74.2155 43.364 73.9372 43.408 73.5563 43.408C72.2672 43.408 71.6081 42.9099 71.6081 41.4451V33.8279H74.4791V30.6052H71.6081V26.7673H67.2868V30.6052H65.1041V33.8279H67.2868V41.9138C67.2868 45.283 68.9274 46.6306 72.4137 46.6306ZM83.2102 46.6306C87.9563 46.6306 90.9885 43.5837 90.9885 38.4568V38.4275C90.9885 33.3445 87.8977 30.283 83.1956 30.283C78.5081 30.283 75.4319 33.3738 75.4319 38.4275V38.4568C75.4319 43.5691 78.4348 46.6306 83.2102 46.6306ZM83.2249 43.2761C81.1155 43.2761 79.7825 41.533 79.7825 38.4568V38.4275C79.7825 35.3953 81.1301 33.6375 83.1956 33.6375C85.2756 33.6375 86.6379 35.3953 86.6379 38.4275V38.4568C86.6379 41.5183 85.3049 43.2761 83.2249 43.2761ZM92.6004 46.3083H96.8778V37.5193C96.8778 35.2341 98.1083 33.9744 100.218 33.9744C100.833 33.9744 101.419 34.0623 101.77 34.2087V30.4441C101.448 30.3562 101.009 30.283 100.54 30.283C98.7088 30.283 97.4344 31.4109 96.9657 33.3445H96.8778V30.6052H92.6004V46.3083Z" fill="black"/>
</svg>
